PathFileType	4	(X/Y/Z)	./resultDataOpenSim/trcMotMarkerGrf/sub09/qtm-13-03.trc
DataRate	CameraRate	NumFrames	NumMarkers	Units	OrigDataRate	OrigDataStartFrame	OrigNumFrames
250.000000	250.000000	6	24	m	250.000000	383	510
Frame#	Time	L.Toe.Tip			R.Toe.Tip			L.Ankle.Lat			R.Ankle.Lat			L.Ankle.Med			R.Ankle.Med			L.Heel			R.Heel			L.Knee.Lat			R.Knee.Lat			L.Knee.Med			R.Knee.Med			L.Thigh.Upper			R.Thigh.Upper			L.ASIS			R.ASIS			V.Sacral			L.Acromium			R.Acromium			C7			L.Elbow			R.Elbow			L.Wrist.Lat			R.Wrist.Lat
		X1	Y1	Z1	X2	Y2	Z2	X3	Y3	Z3	X4	Y4	Z4	X5	Y5	Z5	X6	Y6	Z6	X7	Y7	Z7	X8	Y8	Z8	X9	Y9	Z9	X10	Y10	Z10	X11	Y11	Z11	X12	Y12	Z12	X13	Y13	Z13	X14	Y14	Z14	X15	Y15	Z15	X16	Y16	Z16	X17	Y17	Z17	X18	Y18	Z18	X19	Y19	Z19	X20	Y20	Z20	X21	Y21	Z21	X22	Y22	Z22	X23	Y23	Z23	X24	Y24	Z24

383	1.528	0.92019634	0.10106505	-0.098620341	0.98994487	0.038085442	0.035821297	0.82018696	0.22048595	-0.12544249	0.84376582	0.061550533	0.075230253	0.84993719	0.21306875	-0.03142847	0.86002002	0.10752114	-0.013686045	0.73889108	0.22249577	-0.076295309	0.7733248	0.047101296	0.027650283	1.0903288	0.52834369	-0.1359978	0.97150113	0.5013395	0.14369937	1.0944274	0.5169433	-0.010702737	0.94746079	0.49441943	0.017243304	0.90168143	0.89739075	-0.15917517	0.90811972	0.90517607	0.2127022	0.97387021	0.98527958	-0.10171326	0.99291747	0.9909108	0.13512044	0.81638599	1.0440648	0.025034187	0.97382734	1.4297757	-0.16744726	0.9797628	1.456141	0.16255872	0.9127571	1.494556	-0.0019118536	0.80310482	1.1027393	-0.21321659	0.83658042	1.1264919	0.28322833	0.93596871	0.87113909	-0.25046917	1.0206765	0.91803395	0.29295324
384	1.532	0.93853239	0.099418221	-0.099413929	0.99009225	0.03809182	0.035777743	0.83497054	0.21609273	-0.12609314	0.84402693	0.061930121	0.07510572	0.86441178	0.20931954	-0.031892879	0.86027137	0.10789663	-0.013672448	0.75368093	0.21601129	-0.077197012	0.77338746	0.047704977	0.027503528	1.0979483	0.53036538	-0.13600251	0.97295718	0.50131468	0.14357946	1.1022966	0.51904893	-0.010813179	0.94950265	0.49442539	0.017459506	0.90699826	0.89815491	-0.15950082	0.91258487	0.90568879	0.21243835	0.97882395	0.98620043	-0.10195001	0.9976394	0.9914375	0.13498945	0.82118076	1.0446427	0.024781401	0.97840188	1.4303964	-0.16762296	0.98436966	1.4568922	0.1623785	0.91734894	1.4951729	-0.0020729812	0.80752257	1.1034497	-0.2133165	0.84141806	1.1270543	0.28327656	0.93990588	0.87167188	-0.25093811	1.0266151	0.91946277	0.29226881
385	1.536	0.95663575	0.097766456	-0.10009851	0.99017582	0.03807535	0.035754249	0.84990053	0.21158715	-0.1267379	0.84422949	0.062310847	0.07501576	0.87881857	0.20555649	-0.032278943	0.86005379	0.10820169	-0.013760558	0.76863502	0.20938623	-0.078083892	0.77343896	0.048284732	0.027361566	1.1052245	0.53226573	-0.13606007	0.97438969	0.50126741	0.14345568	1.1099186	0.52099833	-0.01097628	0.95150162	0.49438429	0.017591855	0.91231992	0.89883964	-0.15983849	0.91713333	0.90618249	0.21213201	0.9840143	0.98699048	-0.10222621	1.0023593	0.99192722	0.1348578	0.82593572	1.0451625	0.024570788	0.98297187	1.4309578	-0.1677844	0.98896926	1.4575799	0.16220723	0.92194455	1.4957281	-0.0022334447	0.81195266	1.1041011	-0.21342236	0.84623581	1.1275593	0.28331284	0.94387675	0.87215339	-0.25142536	1.03252	0.92082744	0.2915836
386	1.54	0.97454772	0.096163781	-0.10066789	0.99019965	0.038042549	0.035757991	0.86497377	0.20698254	-0.12738178	0.84436518	0.062686539	0.074966778	0.89339524	0.20173875	-0.032693174	0.85966338	0.1085039	-0.013895994	0.78374279	0.20263149	-0.078938895	0.77350967	0.048845063	0.02725537	1.1123366	0.53398719	-0.13613966	0.97582852	0.50121015	0.14335355	1.1172841	0.52278202	-0.011194814	0.95329496	0.49434936	0.017690765	0.91765516	0.89944951	-0.16019373	0.9217743	0.9066596	0.21177864	0.98929363	0.98767016	-0.10249176	1.007078	0.9923787	0.13472803	0.83065564	1.0456094	0.024372478	0.98753601	1.4314638	-0.16794111	0.99356071	1.4582067	0.16204335	0.9265302	1.496222	-0.0023989649	0.81640259	1.1046941	-0.21353679	0.85104687	1.1280059	0.28334121	0.94788045	0.87258282	-0.25193249	1.0383815	0.92212917	0.29089853
387	1.544	0.99245588	0.094623889	-0.10114021	0.99022834	0.038023788	0.035784061	0.88018585	0.20229853	-0.12802877	0.8444765	0.063045196	0.074943203	0.908365	0.1978214	-0.033230765	0.85948189	0.10887012	-0.013983717	0.7990145	0.19578397	-0.079767358	0.77361184	0.049388537	0.0271882	1.1195267	0.53548168	-0.13620413	0.97728283	0.50114962	0.14328248	1.1244394	0.52439648	-0.011449144	0.95488342	0.49431754	0.017792965	0.92300558	0.89998856	-0.16055831	0.92650037	0.90711836	0.21138295	0.9945294	0.98827831	-0.10271368	1.0117948	0.99278969	0.13460234	0.83541344	1.0459581	0.024107477	0.99209835	1.4319211	-0.16810472	0.99816047	1.4587724	0.16187576	0.93111025	1.4966757	-0.0025651946	0.82089177	1.1052328	-0.21366349	0.85588367	1.1283914	0.28337631	0.95191639	0.87295702	-0.252458	1.0442016	0.92336473	0.29021598
388	1.548	1.0104902	0.093132726	-0.1015407	0.99030176	0.038038654	0.035832987	0.8955364	0.19755242	-0.12867723	0.84460364	0.063383182	0.074928129	0.9238093	0.19378588	-0.033913171	0.85960946	0.10930737	-0.013995432	0.81445319	0.188876	-0.080576363	0.77372671	0.049909518	0.027128652	1.1269165	0.53673501	-0.13623571	0.97873391	0.50108361	0.14323066	1.1314086	0.52583714	-0.0117229	0.95637465	0.49428101	0.017880969	0.92836099	0.90045726	-0.160913	0.93129223	0.90755703	0.21095405	0.99970227	0.98884045	-0.10289187	1.016512	0.99316112	0.13448367	0.84035265	1.0462073	0.023695962	0.99666513	1.4323321	-0.16827528	1.0028162	1.459272	0.1616789	0.93569395	1.4970994	-0.0027284555	0.82542345	1.105717	-0.2138038	0.8607549	1.1287121	0.2834197	0.95598487	0.87327645	-0.25300145	1.0499931	0.92452508	0.28953932
